# xmcd CD database file
#
# Track frame offsets:
#	150
#	18485
#	35730
#	52335
#	68210
#	81755
#	99555
#	114227
#	132557
#	146092
#	158475
#	174645
#
# Disc length: 2542 seconds
#
# Revision: 3
# Processed by: cddbd v1.5.1PL2 Copyright (c) Steve Scherf et al.
# Submitted via: CdAid (MTCDDB.DLL V2003.12.21)
#
DISCID=a909ec0c
DTITLE=Delbert McClinton - Room to Breathe
DYEAR=2002
DGENRE=Country
TTITLE0=Same Kind of Crazy
TTITLE1=Smooth Talk
TTITLE2=Jungle Room
TTITLE3=Everything I Know About The Blues
TTITLE4=Blues About You Baby
TTITLE5=Lone Star Blues
TTITLE6=The Rub
TTITLE7=Won't Be Me
TTITLE8=Don't Want To Love You
TTITLE9=Ain't Lost Nothin'
TTITLE10=Money Honey
TTITLE11=New York City
EXTD=ID3G:   2 YEAR: 2002
EXTT0=
EXTT1=
EXTT2=
EXTT3=
EXTT4=
EXTT5=
EXTT6=
EXTT7=
EXTT8=
EXTT9=
EXTT10=
EXTT11=
PLAYORDER=
